<svg width="125" height="124" viewBox="0 0 125 124" fill="none" xmlns="http://www.w3.org/2000/svg">
<g clip-path="url(#clip0_107_375)">
<path d="M72.1571 100.696L74.5886 91.4831L83.062 95.8408L86.791 118.89L72.1571 100.696ZM69.5503 99.0159L63.701 91.9507L66.7602 85.8904L72.0198 90.1824L69.5503 99.0159ZM59.3222 82.9208C57.5751 82.789 56.7013 82.4212 56.7013 81.8106C56.7013 81.5506 56.7881 81.2463 56.9639 80.8982C58.3611 78.5068 60.3484 75.0713 62.9265 70.5926C66.2031 64.6364 68.6276 59.7456 70.1995 55.9184L70.3302 55.5914C70.3302 55.4173 70.1767 55.3093 69.8714 55.2659C69.3035 55.2659 68.7578 55.2448 68.2339 55.1998C67.404 55.1574 66.9891 55.0262 66.9891 54.8098C66.9891 54.6357 67.1854 54.5489 67.5786 54.5489H73.41C74.8945 54.5489 77.0799 54.2202 79.9622 53.565C82.8456 52.9097 84.8774 52.5832 86.0561 52.5832C86.2307 52.5832 86.3181 52.6478 86.3181 52.779C86.3181 52.868 86.1976 53.0969 85.9584 53.4673C85.7176 53.8394 85.5755 54.0895 85.5327 54.2202C85.4009 54.6579 85.1389 54.8754 84.7456 54.8754C82.256 54.9204 78.8915 55.0294 74.6553 55.2041C74.2182 55.2475 73.8466 55.5095 73.5413 55.9895C72.1424 58.3055 70.1339 62.0183 67.513 67.1282C67.4251 67.3034 67.3823 67.4564 67.3823 67.5871C67.3823 67.8073 67.5342 67.9814 67.8406 68.1116C68.5832 68.4625 69.7412 68.6366 71.3136 68.6366C72.3621 68.6366 73.8694 68.4625 75.8351 68.1116C77.8002 67.7623 79.1106 67.5871 79.7658 67.5871C79.9839 67.5871 80.0935 67.7015 80.0935 67.9299C80.0935 68.705 79.6785 69.115 78.8486 69.1601C76.7523 69.2485 74.1742 69.2919 71.1167 69.2919C71.466 69.2919 70.1339 69.2051 67.1198 69.0288C66.7699 69.0288 66.4862 69.2051 66.2682 69.5527C64.6074 72.6114 63.6902 74.315 63.5161 74.6638C62.511 76.6294 61.7467 78.3987 61.2228 79.9713C61.0915 80.3645 61.0264 80.6925 61.0264 80.954C61.0264 81.6972 61.5835 82.1229 62.697 82.2324C63.8117 82.3419 64.3676 82.4619 64.3676 82.5922C64.3676 82.8102 64.2147 82.9208 63.9093 82.9208H62.5989C60.458 82.9208 59.3656 82.9208 59.3222 82.9208ZM53.9842 98.5708L51.5146 89.7377L56.774 85.4457L59.8332 91.506L53.9842 98.5708ZM49.5038 57.2853C49.1536 57.2853 48.8704 57.4605 48.6521 57.8087C46.9914 60.8673 46.074 62.5704 45.9001 62.9203C44.8947 64.8859 44.1307 66.6547 43.6068 68.2277C43.4758 68.6209 43.4103 68.9485 43.4103 69.2094C43.4103 69.9536 43.9671 70.3795 45.0812 70.4883C46.1954 70.5979 46.7516 70.7178 46.7516 70.8486C46.7516 71.0662 46.5989 71.1768 46.2938 71.1768H44.9833C42.8421 71.1768 41.7498 71.1768 41.7062 71.1768C39.9589 71.045 39.0853 70.6772 39.0853 70.067C39.0853 69.8072 39.1726 69.5029 39.3478 69.1546C40.7451 66.7632 42.7326 63.3276 45.3109 58.849C48.5869 52.8924 51.0113 48.0015 52.5835 44.1744L52.7146 43.8473C52.7146 43.6732 52.561 43.5652 52.2559 43.5219C51.6874 43.5219 51.1419 43.5007 50.6177 43.4562C49.7878 43.4139 49.3731 43.2821 49.3731 43.0657C49.3731 42.8916 49.5697 42.8048 49.9625 42.8048H55.7939C57.2785 42.8048 59.4638 42.4761 62.3461 41.8209C65.2295 41.1657 67.2613 40.8391 68.4405 40.8391C68.6146 40.8391 68.702 40.9037 68.702 41.0355C68.702 41.1239 68.5815 41.3528 68.3423 41.7238C68.1015 42.0953 67.9594 42.3459 67.9166 42.4761C67.7853 42.9138 67.5228 43.1313 67.1301 43.1313C64.6394 43.1764 61.2759 43.2859 57.0392 43.4595C56.6026 43.5034 56.2305 43.7654 55.9252 44.2454C54.5266 46.5615 52.518 50.2742 49.8971 55.3842C49.8089 55.5594 49.7659 55.7123 49.7659 55.843C49.7659 56.0633 49.9183 56.2374 50.2247 56.3675C50.9671 56.7185 52.1252 56.8926 53.6973 56.8926C54.7461 56.8926 56.2533 56.7185 58.219 56.3675C60.1841 56.0182 61.4945 55.843 62.1498 55.843C62.3683 55.843 62.4774 55.9575 62.4774 56.1858C62.4774 56.9609 62.0624 57.371 61.2331 57.416C59.1362 57.5039 56.5581 57.5478 53.5009 57.5478C53.85 57.5478 52.518 57.4605 49.5038 57.2853ZM39.9451 91.8329L41.2814 82.7591L47.8322 80.9779L48.1618 87.7586L39.9451 91.8329ZM29.86 79.9679L34.772 72.2219L41.4808 73.2584L39.0241 79.5871L29.86 79.9679ZM25.473 65.027L33.1109 59.9479L38.8179 63.6243L33.9997 68.4061L25.473 65.027ZM27.5424 49.5924L36.5854 48.0596L40.3042 53.7391L33.9575 56.1479L27.5424 49.5924ZM44.5953 38.6121L45.6827 45.3129L38.9043 44.9326L35.7108 36.3345L44.5953 38.6121ZM48.5653 27.5449L55.7554 33.2396L54.0232 39.8032L47.986 36.6985L48.5653 27.5449ZM63.8833 24.7434L68.1357 32.8702L63.8833 38.1619L59.6314 32.8702L63.8833 24.7434ZM79.0168 28.4155L79.5961 37.569L73.5586 40.6737L71.8267 34.1096L79.0168 28.4155ZM82.4632 40.2018L91.3483 37.9243L88.1546 46.5224L81.3762 46.9032L82.4632 40.2018ZM98.7461 51.6275L92.3311 58.183L85.9845 55.7736L89.7032 50.0947L98.7461 51.6275ZM99.9301 67.1543L91.4041 70.5339L86.5855 65.7516L92.2926 62.0763L99.9301 67.1543ZM83.9516 93.0912L75.7342 89.0158L76.064 82.2352L82.6151 84.017L83.9516 93.0912ZM94.6976 81.8207L85.5332 81.44L83.0767 75.1119L89.7856 74.0748L94.6976 81.8207ZM87.1279 93.4944L85.6015 84.0891L95.1152 84.6234L107.882 104.141C113.741 97.8796 118.31 90.4028 121.175 82.125L97.8745 80.826L92.6549 72.8548L101.563 69.4741L121.178 82.1191C123.373 75.7751 124.582 68.9702 124.582 61.88C124.582 60.0987 124.489 58.3392 124.341 56.5964L102.54 64.8821L94.5295 59.7228L101.292 53.0106L124.34 56.5829C123.588 47.713 120.973 39.3774 116.875 31.9703L100.317 48.4187L90.9003 46.9639L94.3483 38.0816L116.873 31.966C112.666 24.3643 106.909 17.7432 100.023 12.528L91.5902 34.2831L82.3954 36.7836L81.9327 27.2666L100.017 12.5231C93.2141 7.37138 85.3103 3.6055 76.7241 1.61543L77.868 24.9191L70.4854 30.9436L66.1917 22.4371L76.7154 1.61326C72.2107 0.569679 67.5239 0.000160217 62.7019 0.000160217C58.699 0.000160217 54.7901 0.393936 50.9989 1.12021L61.5233 21.9462L57.2296 30.4516L49.8475 24.4277L50.9914 1.12129C42.3132 2.78429 34.284 6.25891 27.3034 11.1378L45.3829 25.8776L44.92 35.3945L35.7258 32.8941L27.294 11.1443C20.2047 16.1013 14.1955 22.4946 9.70859 29.9184L32.2369 36.0346L35.6847 44.9169L26.2681 46.3722L9.70734 29.9206C5.31853 37.1823 2.39592 45.4224 1.30921 54.2327L24.3585 50.6604L31.1209 57.3726L23.1106 62.5319L1.30773 54.2451C0.999451 56.7488 0.821899 59.2927 0.821899 61.88C0.821899 68.1404 1.76009 74.1805 3.48899 79.8757L23.1099 67.2259L32.018 70.6072L26.7984 78.5784L3.48941 79.8774C6.03975 88.2781 10.3334 95.914 15.9413 102.383L28.7072 82.867L38.2204 82.3328L36.6945 91.738L15.9513 102.394C21.595 108.901 28.5668 114.219 36.4549 117.92L40.1826 94.8797L48.656 90.522L51.0874 99.7346L36.4591 117.922C44.0889 121.501 52.5678 123.56 61.5119 123.729L55.552 101.186L61.52 93.7584L67.4886 101.186L61.5282 123.73C61.9198 123.738 62.3081 123.76 62.7019 123.76C80.5268 123.76 96.5814 116.212 107.873 104.151L87.1279 93.4944Z" fill="#FBC218"/>
</g>
<defs>
<clipPath id="clip0_107_375">
<rect width="123.76" height="123.76" fill="white" transform="translate(0.822083)"/>
</clipPath>
</defs>
</svg>
