<svg width="141" height="141" viewBox="0 0 141 141" fill="none" xmlns="http://www.w3.org/2000/svg">
<circle cx="70.5" cy="70.5" r="70.5" fill="#ECF8FF" fill-opacity="0.7"/>
<g clip-path="url(#clip0_107_40)">
<path d="M83.3318 78.1999C96.0684 78.1999 106.431 67.8372 106.431 55.1005C106.431 42.3639 96.0684 32.0012 83.3318 32.0012C70.5951 32.0012 60.2325 42.3639 60.2325 55.1005C60.2325 67.8372 70.5951 78.1999 83.3318 78.1999ZM83.3318 34.5677C94.653 34.5677 103.864 43.7792 103.864 55.1004C103.864 66.4216 94.653 75.6331 83.3318 75.6331C72.0106 75.6331 62.7991 66.4216 62.7991 55.1004C62.7991 43.7792 72.0106 34.5677 83.3318 34.5677Z" fill="#3C4959"/>
<path d="M83.3318 61.5169C81.9164 61.5169 80.7652 60.3659 80.7652 58.9503C80.7652 58.242 80.1916 57.667 79.4819 57.667C78.7722 57.667 78.1987 58.242 78.1987 58.9503C78.1987 61.3347 79.84 63.3276 82.0486 63.9013V64.0836C82.0486 64.7919 82.6221 65.3668 83.3318 65.3668C84.0415 65.3668 84.615 64.7919 84.615 64.0836V63.9013C86.8236 63.3277 88.4649 61.3347 88.4649 58.9503C88.4649 56.1193 86.1627 53.8172 83.3318 53.8172C81.9164 53.8172 80.7652 52.6661 80.7652 51.2505C80.7652 49.8351 81.9162 48.6839 83.3318 48.6839C84.7472 48.6839 85.8984 49.8349 85.8984 51.2505C85.8984 51.9588 86.472 52.5338 87.1817 52.5338C87.8914 52.5338 88.4649 51.9588 88.4649 51.2505C88.4649 48.8661 86.8236 46.8732 84.615 46.2995V46.1172C84.615 45.4089 84.0415 44.834 83.3318 44.834C82.6221 44.834 82.0486 45.4089 82.0486 46.1172V46.2995C79.84 46.8731 78.1987 48.8661 78.1987 51.2505C78.1987 54.0815 80.5009 56.3836 83.3318 56.3836C84.7472 56.3836 85.8984 57.5347 85.8984 58.9503C85.8984 60.3659 84.7474 61.5169 83.3318 61.5169Z" fill="#3C4959"/>
<path d="M83.3318 73.0666C93.2388 73.0666 101.298 65.0076 101.298 55.1004C101.298 45.1933 93.2389 37.1344 83.3318 37.1344C73.4246 37.1344 65.3657 45.1934 65.3657 55.1006C65.3657 65.0077 73.4248 73.0666 83.3318 73.0666ZM83.3318 39.701C91.8233 39.701 98.7313 46.609 98.7313 55.1006C98.7313 63.5921 91.8233 70.5001 83.3318 70.5001C74.8402 70.5001 67.9322 63.5921 67.9322 55.1006C67.9322 46.609 74.8402 39.701 83.3318 39.701Z" fill="#3C4959"/>
<path d="M38.4165 100.657C38.4165 99.5962 37.5529 98.7325 36.4916 98.7325C35.4303 98.7325 34.5667 99.5962 34.5667 100.657C34.5667 101.719 35.4303 102.582 36.4916 102.582C37.5529 102.582 38.4165 101.719 38.4165 100.657Z" fill="#3C4959"/>
<path d="M108.31 85.8996C106.894 83.4473 103.744 82.608 101.378 83.9786L86.6081 91.1677C84.3123 92.3162 81.9947 92.3162 76.9154 92.3162C71.9504 92.3162 64.3699 91.0624 64.2929 91.0508C63.5948 90.934 62.9326 91.4063 62.8171 92.1044C62.7003 92.8039 63.1726 93.466 63.8719 93.5815C64.1902 93.6354 71.7359 94.8828 76.9154 94.8828C82.2436 94.8828 84.918 94.8828 87.7426 93.4699L102.581 86.2437C103.174 85.9011 103.865 85.81 104.529 85.987C105.19 86.1654 105.745 86.5902 106.086 87.183C106.43 87.7772 106.521 88.4688 106.344 89.1311C106.167 89.7934 105.742 90.3464 105.112 90.7109L87.7606 101.51C87.7247 101.534 84.0223 103.866 75.6323 103.866C68.3574 103.866 57.1182 97.6728 56.9564 97.5842C56.8396 97.5278 54.0574 96.1662 48.6831 96.1662C47.9734 96.1662 47.3998 96.7411 47.3998 97.4494C47.3998 98.1578 47.9734 98.7327 48.6831 98.7327C53.3505 98.7327 55.7553 99.8556 55.7604 99.8556V99.8543C56.2456 100.124 67.6925 106.432 75.6323 106.432C84.8977 106.432 89.0067 103.763 89.1428 103.672L106.431 92.9117C107.618 92.2264 108.468 91.1189 108.822 89.7958C109.179 88.47 108.995 87.0866 108.31 85.8996Z" fill="#3C4959"/>
<path d="M48.6828 80.7663H58.9492C60.4467 80.7663 62.9916 82.676 65.2373 84.3595C68.0528 86.4718 70.7132 88.4661 73.0654 88.4661H80.7651C82.7144 88.4661 83.682 89.3502 83.7077 89.3734C83.958 89.6236 84.2866 89.7494 84.615 89.7494C84.9436 89.7494 85.2721 89.6236 85.5223 89.3734C86.024 88.8716 86.024 88.0605 85.5223 87.5588C85.353 87.3895 83.7771 85.8995 80.7651 85.8995H73.0654C71.5678 85.8995 69.023 83.9899 66.7773 82.3063C63.9617 80.194 61.3014 78.1997 58.9492 78.1997H48.6828C47.9731 78.1997 47.3995 78.7746 47.3995 79.483C47.3995 80.1913 47.9731 80.7663 48.6828 80.7663Z" fill="#3C4959"/>
<path d="M40.983 73.0665H33.2832C32.5736 73.0665 32 73.6415 32 74.3498C32 75.0581 32.5736 75.633 33.2832 75.633H40.983C41.6913 75.633 42.2663 76.2091 42.2663 76.9163V105.149C42.2663 105.856 41.6913 106.432 40.983 106.432H33.2832C32.5736 106.432 32 107.007 32 107.715C32 108.424 32.5736 108.998 33.2832 108.998H40.983C43.1056 108.998 44.8329 107.271 44.8329 105.149V76.9164C44.8329 74.7939 43.1056 73.0665 40.983 73.0665Z" fill="#3C4959"/>
</g>
<defs>
<clipPath id="clip0_107_40">
<rect width="77" height="77" fill="white" transform="translate(32 32)"/>
</clipPath>
</defs>
</svg>
