<svg width="141" height="141" viewBox="0 0 141 141" fill="none" xmlns="http://www.w3.org/2000/svg">
<circle cx="70.5" cy="70.5" r="70.5" fill="#ECF8FF" fill-opacity="0.7"/>
<g clip-path="url(#clip0_107_54)">
<g clip-path="url(#clip1_107_54)">
<path d="M87.1833 83.3333H83.3333C83.1536 83.3333 78.9186 83.3666 76.0093 86.2759C73.1 89.1852 73.0666 93.4203 73.0666 93.6V97.45C73.0666 98.1583 73.6402 98.7333 74.3498 98.7333H78.1998C78.3796 98.7333 82.6146 98.6999 85.5239 95.7906C88.4332 92.8812 88.4666 88.6463 88.4666 88.4665V84.6165C88.4667 83.9082 87.893 83.3333 87.1833 83.3333ZM85.9 88.4667C85.9 88.5001 85.8743 91.8097 83.7094 93.9761C81.5803 96.1052 78.2784 96.1655 78.1974 96.1667H75.6333V93.6C75.6333 93.5666 75.659 90.2569 77.8239 88.0906C79.9683 85.9461 83.305 85.9 83.3333 85.9H85.9V88.4667Z" fill="#3C4959"/>
<path d="M55.1 91.0333H51.25C50.5403 91.0333 49.9667 91.6083 49.9667 92.3166V96.1666C49.9667 96.3463 50.0001 100.581 52.9094 103.491C55.8187 106.4 60.0537 106.433 60.2334 106.433H64.0834C64.7931 106.433 65.3667 105.858 65.3667 105.15V101.3C65.3667 101.12 65.3333 96.8853 62.424 93.976C59.5147 91.0667 55.2797 91.0333 55.1 91.0333ZM62.8 103.867H60.2333C60.2013 103.867 56.8902 103.841 54.7239 101.676C52.5795 99.5317 52.5333 96.1964 52.5333 96.1668V93.6H55.1C55.132 93.6 58.443 93.6258 60.6094 95.7906C62.7538 97.9351 62.8 101.27 62.8 101.3V103.867Z" fill="#3C4959"/>
<path d="M70.5 48.6833C71.9155 48.6833 73.0667 49.8343 73.0667 51.25C73.0667 51.9583 73.6403 52.5333 74.35 52.5333C75.0597 52.5333 75.6333 51.9583 75.6333 51.25C75.6333 48.8655 73.9919 46.8725 71.7833 46.2988V46.1165C71.7833 45.4082 71.2097 44.8333 70.5 44.8333C69.7903 44.8333 69.2167 45.4082 69.2167 46.1165V46.2988C67.0081 46.8724 65.3667 48.8655 65.3667 51.25C65.3667 54.0811 67.669 56.3833 70.5 56.3833C71.9155 56.3833 73.0667 57.5343 73.0667 58.95C73.0667 60.3656 71.9156 61.5167 70.5 61.5167C69.0845 61.5167 67.9333 60.3656 67.9333 58.95C67.9333 58.2416 67.3597 57.6667 66.65 57.6667C65.9403 57.6667 65.3667 58.2416 65.3667 58.95C65.3667 61.3344 67.0081 63.3274 69.2167 63.9011V64.0834C69.2167 64.7917 69.7903 65.3667 70.5 65.3667C71.2097 65.3667 71.7833 64.7917 71.7833 64.0834V63.9011C73.9919 63.3275 75.6333 61.3344 75.6333 58.95C75.6333 56.1189 73.331 53.8167 70.5 53.8167C69.0845 53.8167 67.9333 52.6656 67.9333 51.25C67.9333 49.8345 69.0845 48.6833 70.5 48.6833Z" fill="#3C4959"/>
<path d="M102.583 32H38.4167C34.8785 32 32 34.8785 32 38.4167V71.7834C32 75.3215 34.8785 78.2 38.4167 78.2H67.9334V107.717C67.9334 108.425 68.507 109 69.2167 109C69.9264 109 70.5 108.425 70.5 107.717V76.9167C70.5 76.2084 69.9264 75.6334 69.2167 75.6334H38.4167C36.2941 75.6334 34.5667 73.906 34.5667 71.7834V38.4167C34.5667 36.2941 36.2941 34.5667 38.4167 34.5667H102.583C104.706 34.5667 106.433 36.2941 106.433 38.4167V71.7834C106.433 73.906 104.706 75.6334 102.583 75.6334H74.35C73.6403 75.6334 73.0667 76.2084 73.0667 76.9167C73.0667 77.6251 73.6403 78.2 74.35 78.2H102.583C106.121 78.2 109 75.3215 109 71.7833V38.4167C109 34.8785 106.122 32 102.583 32Z" fill="#3C4959"/>
<path d="M96.1667 71.7833C96.1667 68.2452 99.0452 65.3666 102.583 65.3666C103.293 65.3666 103.867 64.7916 103.867 64.0833V46.1167C103.867 45.4084 103.293 44.8334 102.583 44.8334C99.0453 44.8334 96.1667 41.9549 96.1667 38.4167C96.1667 37.7084 95.5931 37.1334 94.8834 37.1334H46.1167C45.407 37.1334 44.8334 37.7084 44.8334 38.4167C44.8334 41.9548 41.955 44.8334 38.4167 44.8334C37.707 44.8334 37.1334 45.4084 37.1334 46.1167V64.0834C37.1334 64.7918 37.707 65.3667 38.4167 65.3667C41.9548 65.3667 44.8334 68.2452 44.8334 71.7834C44.8334 72.4918 45.407 73.0667 46.1167 73.0667H94.8834C95.593 73.0667 96.1667 72.4918 96.1667 71.7833ZM47.3089 70.5C46.7441 66.5716 43.6296 63.4558 39.7 62.8911V47.3089C43.6296 46.7441 46.7441 43.6282 47.3089 39.7H93.6911C94.2559 43.6283 97.3704 46.7441 101.3 47.3089V62.8911C97.3704 63.4558 94.2559 66.5718 93.6911 70.5H47.3089Z" fill="#3C4959"/>
</g>
</g>
<defs>
<clipPath id="clip0_107_54">
<rect width="77" height="77" fill="white" transform="translate(32 32)"/>
</clipPath>
<clipPath id="clip1_107_54">
<rect width="77" height="77" fill="white" transform="translate(32 32)"/>
</clipPath>
</defs>
</svg>
