<svg width="141" height="141" viewBox="0 0 141 141" fill="none" xmlns="http://www.w3.org/2000/svg">
<circle cx="70.5" cy="70.5" r="70.5" fill="#ECF8FF" fill-opacity="0.7"/>
<g clip-path="url(#clip0_107_22)">
<path d="M93.6 80.7667C95.0155 80.7667 96.1667 81.9178 96.1667 83.3335C96.1667 84.0418 96.7403 84.6167 97.45 84.6167C98.1597 84.6167 98.7333 84.0418 98.7333 83.3335C98.7333 80.949 97.0919 78.956 94.8833 78.3823V78.2C94.8833 77.4917 94.3097 76.9167 93.6 76.9167C92.8903 76.9167 92.3167 77.4917 92.3167 78.2V78.3823C90.1081 78.9559 88.4667 80.949 88.4667 83.3335C88.4667 86.1646 90.769 88.4667 93.6 88.4667C95.0155 88.4667 96.1667 89.6178 96.1667 91.0335C96.1667 92.4489 95.0156 93.6002 93.6 93.6002C92.1845 93.6002 91.0333 92.4491 91.0333 91.0335C91.0333 90.3251 90.4597 89.7502 89.75 89.7502C89.0403 89.7502 88.4667 90.3251 88.4667 91.0335C88.4667 93.4179 90.1081 95.4109 92.3167 95.9846V96.1669C92.3167 96.8752 92.8903 97.4502 93.6 97.4502C94.3097 97.4502 94.8833 96.8752 94.8833 96.1669V95.9846C97.0919 95.411 98.7333 93.4179 98.7333 91.0335C98.7333 88.2024 96.4309 85.9002 93.6 85.9002C92.1845 85.9002 91.0333 84.7491 91.0333 83.3335C91.0333 81.9178 92.1845 80.7667 93.6 80.7667Z" fill="#3C4959"/>
<path d="M92.3167 60.2333C93.0264 60.2333 93.6 59.6584 93.6 58.95C93.6 58.2417 93.0264 57.6667 92.3167 57.6667H84.6167C83.907 57.6667 83.3334 58.2417 83.3334 58.95C83.3334 59.6584 83.907 60.2333 84.6167 60.2333H92.3167Z" fill="#3C4959"/>
<path d="M83.3333 87.1833C83.3333 86.475 82.7597 85.9 82.05 85.9H70.5C69.7916 85.9 69.2167 86.475 69.2167 87.1833C69.2167 87.8917 69.7916 88.4666 70.5 88.4666H82.05C82.7597 88.4667 83.3333 87.8918 83.3333 87.1833Z" fill="#3C4959"/>
<path d="M64.0833 60.2333H79.4833C80.193 60.2333 80.7666 59.6584 80.7666 58.95C80.7666 58.2417 80.193 57.6667 79.4833 57.6667H64.0833C63.3749 57.6667 62.8 58.2417 62.8 58.95C62.8 59.6584 63.3749 60.2333 64.0833 60.2333Z" fill="#3C4959"/>
<path d="M102.583 42.2667H57.6667C56.9584 42.2667 56.3834 42.8417 56.3834 43.55C56.3834 44.2583 56.9584 44.8333 57.6667 44.8333H102.583C104.706 44.8333 106.433 46.5607 106.433 48.6833V106.433H55.1V48.6833C55.1 45.1452 52.2215 42.2666 48.6833 42.2666C45.1452 42.2666 42.2666 45.145 42.2666 48.6833V92.3166C42.2666 94.4392 40.5392 96.1666 38.4166 96.1666C36.294 96.1666 34.5666 94.4392 34.5666 92.3166V34.5666H85.9V38.4166C85.9 39.1249 86.4736 39.6998 87.1833 39.6998C87.893 39.6998 88.4666 39.1249 88.4666 38.4166V33.2833C88.4666 32.5749 87.893 32 87.1833 32H33.2833C32.5749 32 32 32.5749 32 33.2833V92.3166C32 95.8547 34.8785 98.7333 38.4167 98.7333C41.9548 98.7333 44.8334 95.8548 44.8334 92.3166V48.6833C44.8334 46.5607 46.5608 44.8333 48.6834 44.8333C50.806 44.8333 52.5334 46.5607 52.5334 48.6833V96.1666H46.1167C45.4084 96.1666 44.8334 96.7415 44.8334 97.4499C44.8334 98.1582 45.4084 98.7331 46.1167 98.7331H52.5334V107.716C52.5334 108.425 53.1084 109 53.8167 109H107.717C108.426 109 109 108.425 109 107.716V48.6833C109 45.1452 106.122 42.2667 102.583 42.2667Z" fill="#3C4959"/>
<path d="M64.0833 67.9334H97.45C98.1597 67.9334 98.7333 67.3584 98.7333 66.6501C98.7333 65.9418 98.1597 65.3668 97.45 65.3668H64.0833C63.3749 65.3668 62.8 65.9418 62.8 66.6501C62.8 67.3584 63.3749 67.9334 64.0833 67.9334Z" fill="#3C4959"/>
<path d="M70.5 93.6C69.7916 93.6 69.2167 94.1749 69.2167 94.8833C69.2167 95.5916 69.7916 96.1665 70.5 96.1665H80.7667C81.4764 96.1665 82.05 95.5916 82.05 94.8833C82.05 94.1749 81.4764 93.6 80.7667 93.6H70.5Z" fill="#3C4959"/>
<path d="M64.0833 96.1668H65.3666C66.0749 96.1668 66.6498 95.5918 66.6498 94.8835C66.6498 94.1752 66.0749 93.6002 65.3666 93.6002H64.0833C63.3749 93.6002 62.8 94.1752 62.8 94.8835C62.8 95.5918 63.3749 96.1668 64.0833 96.1668Z" fill="#3C4959"/>
<path d="M64.0833 88.4667H65.3666C66.0749 88.4667 66.6498 87.8918 66.6498 87.1834C66.6498 86.4751 66.0749 85.9001 65.3666 85.9001H64.0833C63.3749 85.9001 62.8 86.4751 62.8 87.1834C62.8 87.8918 63.3749 88.4667 64.0833 88.4667Z" fill="#3C4959"/>
<path d="M70.5 80.7668H79.4833C80.193 80.7668 80.7666 80.1918 80.7666 79.4835C80.7666 78.7751 80.193 78.2002 79.4833 78.2002H70.5C69.7916 78.2002 69.2167 78.7751 69.2167 79.4835C69.2167 80.1918 69.7916 80.7668 70.5 80.7668Z" fill="#3C4959"/>
<path d="M64.0833 80.7668H65.3666C66.0749 80.7668 66.6498 80.1918 66.6498 79.4835C66.6498 78.7751 66.0749 78.2002 65.3666 78.2002H64.0833C63.3749 78.2002 62.8 78.7751 62.8 79.4835C62.8 80.1918 63.3749 80.7668 64.0833 80.7668Z" fill="#3C4959"/>
</g>
<defs>
<clipPath id="clip0_107_22">
<rect width="77" height="77" fill="white" transform="translate(32 32)"/>
</clipPath>
</defs>
</svg>
