<svg width="36" height="36" viewBox="0 0 36 36" fill="none" xmlns="http://www.w3.org/2000/svg">
<g clip-path="url(#clip0_107_346)">
<path d="M34.9774 27.0046C33.6661 24.5256 29.1126 21.8378 28.9121 21.7202C28.327 21.3872 27.7164 21.2109 27.145 21.2109C26.2954 21.2109 25.5999 21.6001 25.1787 22.308C24.5126 23.1047 23.6865 24.0359 23.486 24.1802C21.9344 25.2329 20.7198 25.1134 19.3759 23.7694L11.8751 16.2681C10.5397 14.9326 10.4169 13.703 11.4624 12.1599C11.6087 11.9581 12.5399 11.1313 13.3366 10.4646C13.8447 10.1622 14.1934 9.71294 14.3462 9.16179C14.5493 8.42843 14.3998 7.56578 13.9204 6.72533C13.8075 6.53203 11.1183 1.97779 8.64068 0.667156C8.17834 0.422269 7.65722 0.292969 7.13479 0.292969C6.2741 0.292969 5.46434 0.628627 4.85571 1.2366L3.19832 2.89334C0.577052 5.51395 -0.371802 8.48459 0.376572 11.7223C1.00087 14.4206 2.82021 17.292 5.78498 20.2561L15.3878 29.859C19.1401 33.6113 22.7174 35.5142 26.0205 35.5142C26.0205 35.5142 26.0205 35.5142 26.0211 35.5142C28.4504 35.5142 30.7151 34.4818 32.7506 32.4463L34.4073 30.7895C35.4143 29.7832 35.6429 28.2616 34.9774 27.0046Z" fill="white"/>
</g>
<defs>
<clipPath id="clip0_107_346">
<rect width="35.2258" height="35.2258" fill="white" transform="translate(0.129211 0.290283)"/>
</clipPath>
</defs>
</svg>
