<svg width="35" height="35" viewBox="0 0 35 35" fill="none" xmlns="http://www.w3.org/2000/svg">
<g clip-path="url(#clip0_107_351)">
<path d="M34.4783 0.400694C34.474 0.397759 34.4725 0.393389 34.4696 0.390522C34.4609 0.383217 34.4521 0.381783 34.4434 0.374478C34.3662 0.307504 34.2744 0.263811 34.1842 0.215748C34.155 0.201206 34.1332 0.176424 34.1026 0.163316C34.0982 0.161882 34.0953 0.161882 34.0924 0.16038C34.0604 0.147272 34.0342 0.123992 34.0021 0.112317C33.8812 0.0671899 33.753 0.0525799 33.6234 0.0409738C33.5841 0.0380382 33.5462 0.0205608 33.5068 0.0205608C33.3379 0.0191271 33.1675 0.0467769 33.0014 0.106514L0.95955 11.7581C0.451271 11.943 0.0871132 12.3946 0.0128342 12.9305C-0.0585091 13.4665 0.170131 13.998 0.611435 14.3126L10.2983 21.2323L11.6659 30.8113C11.7503 31.3939 12.1771 31.8687 12.7481 32.0158C12.8675 32.0464 12.9898 32.0609 13.1093 32.0609C13.5593 32.0609 13.9948 31.8512 14.273 31.4784L17.7102 26.8979L26.7242 34.6287C26.9936 34.8588 27.3301 34.9797 27.6738 34.9797C27.8369 34.9797 28 34.952 28.1602 34.8967C28.6496 34.7219 29.0122 34.298 29.1054 33.7854L34.9764 1.77117C35.0726 1.24685 34.8686 0.731263 34.4783 0.400694ZM16.3936 23.7855L16.2887 23.937L14.0531 26.9183L13.2068 20.9905L25.8444 10.0365L16.3936 23.7855Z" fill="white"/>
</g>
<defs>
<clipPath id="clip0_107_351">
<rect width="35" height="35" fill="white"/>
</clipPath>
</defs>
</svg>
