<svg width="31" height="32" viewBox="0 0 31 32" fill="none" xmlns="http://www.w3.org/2000/svg">
<g clip-path="url(#clip0_107_82)">
<g opacity="0.42">
<path d="M14.2702 24.7275L15.3666 26.4817L13.5008 31.1894L12.7932 26.1761L14.2702 24.7275Z" fill="#7CB9DC"/>
<path d="M10.6721 23.5039L10.9603 25.5528L7.34085 29.0943L8.73349 24.2265L10.6721 23.5039Z" fill="#7CB9DC"/>
<path d="M7.88225 20.9228L7.31248 22.9118L2.5654 24.6749L5.81744 20.7944L7.88225 20.9228Z" fill="#7CB9DC"/>
<path d="M6.38337 17.4302L5.0537 19.0154L3.05176e-05 18.6954L4.54934 16.4731L6.38337 17.4302Z" fill="#7CB9DC"/>
<path d="M6.43458 13.6301L4.57518 14.5374L0.0885315 12.1895L5.14832 12.0098L6.43458 13.6301Z" fill="#7CB9DC"/>
<path d="M8.02777 10.1791L5.9599 10.2519L2.81638 6.2818L7.5118 8.17574L8.02777 10.1791Z" fill="#7CB9DC"/>
<path d="M10.8862 7.67438L8.96777 6.89981L7.71024 1.99438L11.2294 5.63432L10.8862 7.67438Z" fill="#7CB9DC"/>
<path d="M14.5165 6.54891L13.0789 5.0609L13.9256 0.0683594L15.66 4.82492L14.5165 6.54891Z" fill="#7CB9DC"/>
<path d="M18.2904 6.9973L17.5824 5.05323L20.3864 0.836792L20.0361 5.88741L18.2904 6.9973Z" fill="#7CB9DC"/>
<path d="M21.5558 8.94201L21.6998 6.87812L25.9765 4.1665L23.602 8.63818L21.5558 8.94201Z" fill="#7CB9DC"/>
<path d="M23.748 12.047L24.7191 10.22L29.7291 9.48242L25.7413 12.6018L23.748 12.047Z" fill="#7CB9DC"/>
<path d="M24.4881 15.7747L26.1182 14.5006L30.9949 15.8645L26.0831 17.0921L24.4881 15.7747Z" fill="#7CB9DC"/>
<path d="M23.6472 19.4812L25.6545 18.9805L29.5549 22.21L24.5685 21.3336L23.6472 19.4812Z" fill="#7CB9DC"/>
<path d="M21.3722 22.5255L23.4098 22.8846L25.6595 27.4214L21.4605 24.5924L21.3722 22.5255Z" fill="#7CB9DC"/>
<path d="M18.0551 24.3812L19.7705 25.5378L19.9805 30.5973L17.2949 26.3054L18.0551 24.3812Z" fill="#7CB9DC"/>
</g>
<g opacity="0.42">
<path d="M15.8287 25.2224L14.8112 24.1556L15.5818 22.3192L16.6513 23.9994L15.8287 25.2224Z" fill="#7CB9DC"/>
<path d="M11.8963 24.6487L11.4008 23.2603L12.8518 21.8961L13.1453 23.8659L11.8963 24.6487Z" fill="#7CB9DC"/>
<path d="M8.53763 22.5251L8.6495 21.0554L10.53 20.3992L9.99691 22.3182L8.53763 22.5251Z" fill="#7CB9DC"/>
<path d="M6.3327 19.219L7.03269 17.9221L9.01742 18.0874L7.7501 19.6237L6.3327 19.219Z" fill="#7CB9DC"/>
<path d="M5.66296 15.3021L6.83032 14.4019L8.57602 15.3602L6.79334 16.2482L5.66296 15.3021Z" fill="#7CB9DC"/>
<path d="M6.64481 11.4516L8.07718 11.1037L9.28245 12.6892L7.29252 12.7754L6.64481 11.4516Z" fill="#7CB9DC"/>
<path d="M9.10785 8.33282L10.558 8.59784L11.014 10.5367L9.16134 9.80586L9.10785 8.33282Z" fill="#7CB9DC"/>
<path d="M12.6262 6.4859L13.8427 7.31763L13.471 9.27424L12.0757 7.85317L12.6262 6.4859Z" fill="#7CB9DC"/>
<path d="M16.592 6.22955L17.3653 7.48434L16.2298 9.12029L15.5328 7.25478L16.592 6.22955Z" fill="#7CB9DC"/>
<path d="M20.3186 7.60809L20.5148 9.0689L18.812 10.1018L18.9342 8.11398L20.3186 7.60809Z" fill="#7CB9DC"/>
<path d="M23.1622 10.3836L22.7471 11.7979L20.7715 12.0489L21.6919 10.2827L23.1622 10.3836Z" fill="#7CB9DC"/>
<path d="M24.6317 14.0757L23.6774 15.199L21.7703 14.6244L23.3295 13.3855L24.6317 14.0757Z" fill="#7CB9DC"/>
<path d="M24.4722 18.0464L23.1434 18.6841L21.6349 17.384L23.5634 16.8861L24.4722 18.0464Z" fill="#7CB9DC"/>
<path d="M22.7116 21.6087L21.2383 21.6512L20.3891 19.8496L22.3533 20.1791L22.7116 21.6087Z" fill="#7CB9DC"/>
<path d="M19.6543 24.147L18.291 23.5864L18.2479 21.5953L19.9083 22.6951L19.6543 24.147Z" fill="#7CB9DC"/>
</g>
</g>
<defs>
<clipPath id="clip0_107_82">
<rect width="30.9948" height="31.1211" fill="white" transform="translate(0 0.0683594)"/>
</clipPath>
</defs>
</svg>
