<svg width="227" height="228" viewBox="0 0 227 228" fill="none" xmlns="http://www.w3.org/2000/svg">
<g opacity="0.45" clip-path="url(#clip0_107_307)">
<g opacity="0.42">
<path d="M104.513 180.599L112.543 193.447L98.8781 227.925L93.6955 191.208L104.513 180.599Z" fill="#FBC21B"/>
<path d="M78.1591 171.637L80.2702 186.643L53.7619 212.581L63.9614 176.93L78.1591 171.637Z" fill="#FBC21B"/>
<path d="M57.7266 152.734L53.5537 167.301L18.787 180.214L42.6043 151.794L57.7266 152.734Z" fill="#FBC21B"/>
<path d="M46.7504 127.155L37.0121 138.765L0 136.421L33.3183 120.146L46.7504 127.155Z" fill="#FBC21B"/>
<path d="M47.1265 99.3235L33.5086 105.968L0.649231 88.7726L37.7061 87.4563L47.1265 99.3235Z" fill="#FBC21B"/>
<path d="M58.7922 74.0488L43.6476 74.5816L20.625 45.5056L55.0134 59.3765L58.7922 74.0488Z" fill="#FBC21B"/>
<path d="M79.7284 55.7051L65.6784 50.0323L56.4685 14.106L82.2424 40.7642L79.7284 55.7051Z" fill="#FBC21B"/>
<path d="M106.315 47.4623L95.7864 36.5644L101.988 0L114.69 34.8361L106.315 47.4623Z" fill="#FBC21B"/>
<path d="M133.956 50.7463L128.771 36.5083L149.307 5.62793L146.741 42.6177L133.956 50.7463Z" fill="#FBC21B"/>
<path d="M157.872 64.9888L158.926 49.8733L190.248 30.0139L172.857 62.7636L157.872 64.9888Z" fill="#FBC21B"/>
<path d="M173.925 87.7293L181.038 74.3487L217.73 68.9468L188.524 91.7925L173.925 87.7293Z" fill="#FBC21B"/>
<path d="M179.345 115.03L191.284 105.699L227 115.688L191.027 124.679L179.345 115.03Z" fill="#FBC21B"/>
<path d="M173.189 142.176L187.89 138.51L216.456 162.161L179.936 155.743L173.189 142.176Z" fill="#FBC21B"/>
<path d="M156.524 164.471L171.447 167.102L187.924 200.328L157.171 179.609L156.524 164.471Z" fill="#FBC21B"/>
<path d="M132.232 178.062L144.796 186.534L146.334 223.588L126.665 192.155L132.232 178.062Z" fill="#FBC21B"/>
</g>
<g opacity="0.42">
<path d="M115.926 184.223L108.473 176.41L114.117 162.96L121.95 175.266L115.926 184.223Z" fill="#FBC21B"/>
<path d="M87.125 180.021L83.4961 169.853L94.1231 159.862L96.2723 174.288L87.125 180.021Z" fill="#FBC21B"/>
<path d="M62.5264 164.469L63.3458 153.706L77.1182 148.899L73.2139 162.954L62.5264 164.469Z" fill="#FBC21B"/>
<path d="M46.3788 140.256L51.5054 130.757L66.0411 131.968L56.7596 143.22L46.3788 140.256Z" fill="#FBC21B"/>
<path d="M41.4739 111.569L50.0234 104.976L62.8085 111.995L49.7525 118.498L41.4739 111.569Z" fill="#FBC21B"/>
<path d="M48.6645 83.3684L59.155 80.8208L67.9821 92.4328L53.4083 93.0641L48.6645 83.3684Z" fill="#FBC21B"/>
<path d="M66.7016 60.5273L77.3219 62.4683L80.662 76.6682L67.0933 71.3155L66.7016 60.5273Z" fill="#FBC21B"/>
<path d="M92.471 47.001L101.381 53.0924L98.6587 67.4222L88.4391 57.0146L92.471 47.001Z" fill="#FBC21B"/>
<path d="M121.513 45.1228L127.177 54.3126L118.861 66.294L113.756 52.6313L121.513 45.1228Z" fill="#FBC21B"/>
<path d="M148.807 55.2192L150.245 65.9179L137.773 73.4824L138.668 58.9243L148.807 55.2192Z" fill="#FBC21B"/>
<path d="M169.636 75.5466L166.596 85.905L152.127 87.743L158.868 74.8079L169.636 75.5466Z" fill="#FBC21B"/>
<path d="M180.397 102.588L173.408 110.815L159.441 106.606L170.861 97.5327L180.397 102.588Z" fill="#FBC21B"/>
<path d="M179.229 131.668L169.497 136.338L158.449 126.817L172.573 123.17L179.229 131.668Z" fill="#FBC21B"/>
<path d="M166.334 157.758L155.544 158.069L149.325 144.874L163.71 147.287L166.334 157.758Z" fill="#FBC21B"/>
<path d="M143.943 176.348L133.958 172.242L133.643 157.659L145.803 165.714L143.943 176.348Z" fill="#FBC21B"/>
</g>
</g>
<defs>
<clipPath id="clip0_107_307">
<rect width="227" height="227.925" fill="white"/>
</clipPath>
</defs>
</svg>
