<svg width="18" height="18" viewBox="0 0 18 18" fill="none" xmlns="http://www.w3.org/2000/svg">
<path d="M17.806 16.7555L16.7555 17.806C16.4967 18.0647 16.0773 18.0647 15.8186 17.806L9 10.9874L2.1814 17.806C1.9227 18.0647 1.50325 18.0647 1.24455 17.806L0.194031 16.7555C-0.064675 16.4968 -0.0646752 16.0773 0.19403 15.8186L7.01263 9L0.194029 2.1814C-0.0646765 1.92269 -0.0646765 1.50325 0.19403 1.24454L1.24454 0.194029C1.50325 -0.0646763 1.92269 -0.0646765 2.1814 0.194029L9 7.01263L15.8186 0.194029C16.0773 -0.0646761 16.4967 -0.0646758 16.7555 0.19403L17.806 1.24454C18.0647 1.50325 18.0647 1.9227 17.806 2.1814L10.9874 9L17.806 15.8186C18.0647 16.0773 18.0647 16.4967 17.806 16.7555Z" fill="#3C4959"/>
</svg>
