<svg version="1.0" xmlns="http://www.w3.org/2000/svg"
 width="1301.000000pt" height="360.000000pt" viewBox="0 0 1301.000000 360.000000"
 preserveAspectRatio="xMidYMid meet">

<g transform="translate(0.000000,360.000000) scale(0.100000,-0.100000)"
fill="#000000" stroke="none">
<path d="M12537 3155 c-56 -19 -165 -95 -241 -165 -80 -75 -137 -151 -253
-340 -89 -143 -464 -780 -490 -832 -33 -65 -217 -198 -274 -198 -25 0 -49 27
-49 54 0 39 45 164 104 289 l55 117 41 0 c25 0 39 4 35 10 -3 6 -17 10 -31 10
-24 0 -34 23 -14 35 17 11 11 25 -10 25 -12 0 -31 -10 -44 -23 -12 -13 -52
-31 -87 -41 -35 -9 -84 -29 -109 -43 -65 -38 -156 -128 -197 -196 -42 -69
-138 -152 -227 -196 -106 -52 -164 -36 -152 41 10 60 68 196 125 293 56 96 61
115 30 115 -29 0 -65 -42 -129 -151 -59 -101 -135 -183 -236 -255 -78 -56
-122 -74 -178 -74 -36 0 -48 5 -65 26 -43 55 -14 203 62 315 53 79 86 104 138
104 47 0 69 -22 69 -67 0 -36 9 -35 49 6 29 30 32 36 21 57 -7 13 -19 32 -28
42 -59 67 -271 -69 -370 -238 -92 -158 -329 -313 -382 -250 -32 39 23 185 139
369 33 54 61 105 61 112 0 45 -69 11 -221 -111 -46 -37 -90 -72 -97 -78 -13
-10 43 121 59 138 14 14 11 41 -7 56 -14 11 -19 10 -36 -11 -11 -14 -45 -74
-75 -135 -48 -95 -67 -122 -142 -195 -89 -89 -192 -154 -233 -148 -12 2 -29
15 -37 29 -14 25 -13 34 12 108 15 45 52 135 83 201 l57 120 39 0 c24 0 37 4
33 10 -3 6 -18 10 -32 10 -18 0 -24 4 -19 15 3 8 9 22 12 30 10 25 -30 18 -60
-10 -15 -14 -48 -30 -72 -35 -119 -27 -250 -128 -319 -246 -83 -142 -316 -288
-365 -229 -32 39 28 199 143 379 60 94 66 113 42 122 -17 7 -129 -65 -219
-140 -105 -88 -100 -86 -73 -25 13 30 33 71 43 92 18 38 18 39 0 52 -10 8 -23
12 -29 9 -7 -2 -37 -55 -67 -116 -66 -133 -134 -212 -253 -292 -94 -63 -162
-86 -201 -68 -19 9 -26 19 -26 41 0 59 74 236 146 349 19 29 34 59 34 67 0 26
-41 16 -72 -17 -67 -72 -208 -342 -208 -401 0 -17 10 -38 26 -54 23 -23 31
-25 92 -21 86 4 150 35 264 127 l88 70 -27 -42 c-14 -23 -34 -54 -44 -69 -22
-31 -25 -77 -5 -103 15 -20 21 -13 135 177 52 87 142 182 222 235 71 47 65 19
-44 -180 -77 -142 -93 -203 -62 -237 47 -52 204 3 345 121 57 48 68 54 60 33
-14 -35 -12 -78 2 -92 36 -36 131 8 214 102 27 29 44 43 40 31 -23 -86 -9
-151 37 -173 58 -28 147 12 272 122 l69 61 -42 -62 c-44 -65 -52 -105 -28
-138 15 -20 16 -19 136 178 54 88 134 173 218 231 23 16 45 26 48 23 10 -10
-22 -83 -92 -208 -99 -180 -98 -249 5 -249 73 0 203 69 306 162 l50 46 0 -64
c0 -86 20 -106 107 -112 102 -6 221 50 346 162 56 51 61 52 37 5 -9 -16 -16
-50 -17 -76 -1 -69 24 -87 118 -81 81 5 130 29 242 114 67 51 70 52 61 25 -6
-16 -9 -46 -7 -68 3 -36 5 -38 41 -41 47 -4 79 15 163 98 l63 62 -11 -38 c-21
-76 4 -145 58 -158 54 -14 167 43 257 128 21 20 40 36 42 36 2 0 -2 -15 -7
-34 -26 -85 18 -146 107 -146 87 0 176 38 287 121 70 52 218 204 218 223 0 6
-12 -2 -26 -19 -110 -129 -204 -207 -306 -255 -86 -40 -130 -47 -163 -26 -36
24 -34 94 5 194 46 116 180 352 210 370 242 145 446 345 623 612 122 184 176
319 142 353 -20 20 -28 20 -78 2z m-27 -70 c19 -23 -3 -115 -51 -212 -89 -179
-238 -371 -387 -499 -89 -76 -201 -158 -207 -152 -7 7 377 600 457 706 78 105
141 172 162 172 7 0 19 -7 26 -15z m-3341 -1052 c-103 -185 -246 -363 -291
-363 -18 0 -20 4 -14 33 4 17 26 73 50 122 73 148 184 254 279 264 5 1 -6 -25
-24 -56z m2111 -27 c-100 -175 -232 -336 -273 -336 -56 0 50 224 156 329 67
66 92 80 159 90 4 1 -15 -37 -42 -83z"/>
<path d="M5745 3066 c-73 -19 -101 -32 -175 -81 -162 -107 -384 -380 -628
-770 -124 -199 -342 -580 -342 -598 0 -14 31 -47 43 -47 3 0 25 27 47 60 41
60 225 260 240 260 4 0 15 -39 25 -87 32 -164 74 -228 148 -228 64 0 127 38
232 137 52 49 95 88 95 85 0 -2 -7 -21 -15 -40 -22 -53 -20 -124 4 -137 45
-24 100 -3 169 64 41 38 43 39 33 13 -20 -51 -14 -105 15 -134 23 -23 31 -25
72 -19 46 6 131 44 164 73 16 14 21 13 56 -19 98 -88 224 -75 339 37 65 63 81
115 93 300 10 172 19 188 93 183 50 -3 52 -2 55 25 2 18 -2 29 -13 34 -37 14
-169 -76 -200 -137 -8 -15 -18 -87 -24 -162 -14 -185 -44 -259 -121 -298 -68
-35 -133 -18 -170 43 -29 47 -25 63 25 116 56 59 125 151 125 165 -1 6 -10 0
-21 -14 -97 -120 -133 -160 -145 -160 -7 0 -32 -23 -55 -50 -29 -34 -64 -61
-112 -85 -81 -41 -88 -42 -112 -15 -39 44 4 179 99 305 84 112 91 134 56 176
l-20 24 -18 -23 c-10 -13 -47 -76 -82 -140 -98 -182 -186 -287 -233 -280 -51
7 -29 71 109 315 67 119 76 148 45 156 -32 8 -48 -10 -128 -145 -61 -103 -98
-152 -168 -224 -104 -106 -162 -136 -211 -112 -49 23 -96 139 -119 290 l-7 45
104 78 c56 43 123 88 148 99 64 30 70 35 63 51 -11 30 -44 13 -173 -90 -72
-58 -135 -103 -140 -100 -5 3 -25 -4 -44 -16 -25 -14 -36 -28 -36 -44 0 -16
-28 -49 -95 -110 -52 -48 -95 -85 -95 -82 0 11 229 412 343 602 143 236 244
376 360 494 80 81 125 111 212 141 72 25 128 25 182 1 46 -22 63 -45 63 -90 0
-48 13 -36 32 28 23 77 13 105 -44 131 -49 22 -73 23 -143 6z"/>
<path d="M3765 2683 c-16 -2 -70 -13 -120 -23 -151 -34 -284 -50 -405 -50 -78
0 -110 -3 -100 -10 8 -5 36 -10 63 -10 26 0 47 -5 47 -10 0 -17 -97 -228 -160
-346 -73 -139 -180 -330 -259 -464 -34 -56 -64 -113 -67 -126 -9 -35 26 -44
164 -43 113 1 118 5 29 24 -36 7 -43 28 -28 82 15 58 159 355 184 379 3 3 107
5 232 4 236 -1 255 2 255 41 0 21 0 21 -170 -7 -153 -25 -280 -14 -280 24 0
19 161 326 206 393 29 43 32 44 94 50 36 4 125 7 197 8 l133 1 24 38 c24 37
25 53 3 51 -7 -1 -25 -4 -42 -6z"/>
<path d="M7975 2683 c-16 -2 -97 -18 -180 -34 -112 -23 -188 -32 -302 -36 -84
-3 -150 -10 -147 -14 3 -5 27 -9 54 -9 27 0 51 -4 54 -8 13 -21 -184 -407
-383 -752 -55 -96 -101 -182 -101 -192 0 -31 35 -39 157 -36 81 2 109 5 88 11
-107 28 -108 30 -61 148 20 52 65 146 100 209 l63 115 233 2 c232 3 260 7 260
39 0 23 -16 24 -136 4 -143 -24 -242 -25 -290 -5 -28 11 -35 19 -30 32 10 25
184 351 212 394 22 35 23 36 106 42 45 4 133 7 193 7 61 0 115 4 120 8 14 10
45 59 45 72 0 5 -6 9 -12 9 -7 -1 -26 -4 -43 -6z"/>
<path d="M8112 2447 c-13 -13 -24 -37 -25 -53 -2 -25 2 -29 25 -32 36 -4 80
41 76 77 -4 36 -46 40 -76 8z"/>
<path d="M10877 2459 c-22 -13 -50 -67 -43 -85 9 -22 55 -16 82 11 47 47 16
106 -39 74z"/>
<path d="M3963 2137 c-15 -13 -60 -34 -99 -45 -164 -50 -289 -179 -349 -361
-23 -71 -11 -101 41 -101 42 0 77 22 156 98 l57 55 -6 -56 c-8 -74 8 -113 52
-127 65 -21 156 23 268 128 33 31 57 48 52 37 -5 -11 -10 -39 -13 -62 -4 -39
-2 -44 24 -53 34 -13 76 -5 133 26 24 13 45 23 46 22 2 -2 -35 -64 -81 -138
l-84 -135 -183 -6 c-100 -4 -294 -8 -432 -9 -137 -1 -308 -6 -380 -9 l-130 -8
135 -2 c595 -10 941 -19 946 -24 7 -7 -113 -184 -212 -312 -223 -290 -427
-418 -610 -384 -96 18 -174 84 -174 147 0 13 -4 20 -10 17 -15 -9 -12 -110 4
-148 37 -91 158 -129 292 -93 197 52 370 224 675 669 l74 109 740 -9 c1640
-18 5113 -4 6225 26 l255 7 -225 7 c-906 29 -4487 47 -6055 29 -495 -6 -901
-9 -903 -8 -6 7 216 349 278 426 75 95 119 159 145 209 14 28 15 38 4 57 -7
13 -17 24 -23 24 -18 -1 -64 -69 -160 -241 -91 -163 -110 -186 -177 -213 -86
-36 -72 38 46 237 41 69 75 128 75 131 0 9 -43 7 -57 -2 -7 -4 -52 -66 -100
-137 -65 -95 -106 -144 -157 -187 -134 -112 -227 -136 -234 -60 -5 46 29 145
98 290 l59 122 43 0 c31 0 39 3 28 10 -8 5 -25 10 -38 10 -22 0 -22 1 -7 30
15 28 14 30 -4 30 -11 0 -32 -11 -48 -23z m-43 -54 c0 -10 -76 -137 -133 -223
-61 -90 -156 -190 -181 -190 -62 0 80 278 185 360 48 39 129 72 129 53z"/>
<path d="M5153 973 c22 -6 22 -4 -8 -191 -29 -180 -35 -199 -67 -205 -13 -2
11 -4 52 -4 41 0 65 2 53 4 -12 2 -23 10 -25 16 -3 7 9 96 27 200 l31 187 -41
-1 c-22 -1 -32 -3 -22 -6z"/>
<path d="M5468 970 c17 -7 21 -15 18 -32 -3 -13 -10 -53 -16 -89 l-12 -66 -23
23 c-68 68 -184 -12 -188 -130 -2 -56 18 -93 58 -106 45 -15 125 19 125 53 0
6 -13 -1 -28 -16 -34 -33 -86 -37 -102 -8 -5 11 -10 41 -10 68 1 102 67 177
124 139 28 -18 42 -71 31 -113 -4 -16 -9 -49 -11 -75 l-4 -48 38 1 c20 1 29 3
20 6 -10 2 -18 10 -18 16 0 13 43 287 55 350 l7 37 -43 -1 c-37 0 -40 -2 -21
-9z"/>
<path d="M7558 970 c19 -8 22 -15 17 -42 -3 -18 -16 -100 -30 -182 -13 -82
-28 -153 -32 -157 -4 -4 -17 -9 -28 -12 -11 -3 14 -5 55 -5 41 0 66 2 55 5
-11 3 -23 8 -27 12 -4 4 6 88 22 186 16 99 30 186 30 193 0 8 -15 12 -42 11
-37 0 -40 -2 -20 -9z"/>
<path d="M7933 973 c22 -6 22 -5 -8 -197 -32 -199 -30 -194 -63 -199 -15 -2 7
-4 48 -5 41 0 65 3 52 6 -27 8 -27 6 -18 78 8 71 38 129 76 149 71 37 87 12
72 -105 -14 -105 -18 -117 -40 -123 -10 -3 10 -5 43 -5 42 -1 54 2 39 8 -19 7
-20 13 -13 57 22 132 22 153 4 173 -29 32 -87 27 -130 -11 l-35 -31 5 29 c3
15 12 63 19 106 l13 77 -41 -1 c-23 -1 -33 -3 -23 -6z"/>
<path d="M10938 970 c17 -7 21 -15 18 -32 -3 -13 -17 -95 -31 -183 -14 -88
-29 -163 -33 -167 -4 -3 -16 -8 -27 -11 -11 -3 12 -5 50 -5 51 -1 64 2 48 8
-13 5 -23 13 -23 17 0 10 46 295 55 346 l7 37 -43 -1 c-37 0 -40 -2 -21 -9z"/>
<path d="M11093 973 c9 -2 17 -11 17 -20 0 -32 -51 -339 -59 -353 -4 -8 -19
-18 -32 -21 -13 -4 9 -7 51 -7 41 1 65 3 53 5 -30 6 -30 33 6 241 l27 162 -40
-1 c-23 -1 -33 -3 -23 -6z"/>
<path d="M4338 953 c12 -2 22 -6 22 -8 0 -9 -50 -322 -55 -342 -3 -14 -14 -23
-33 -26 -15 -2 18 -5 73 -5 121 -2 169 10 212 53 27 27 33 41 33 75 0 34 -6
47 -31 71 -17 16 -39 29 -48 29 -13 1 -12 3 4 12 65 36 84 88 44 124 -18 16
-38 19 -133 21 -61 1 -101 -1 -88 -4z m165 -14 c46 -25 49 -59 8 -100 -23 -23
-39 -29 -70 -29 -23 0 -41 -4 -41 -10 0 -5 23 -10 50 -10 42 0 55 -5 75 -26
29 -31 32 -71 10 -114 -21 -41 -63 -60 -135 -60 -57 0 -60 1 -55 23 8 38 46
278 48 308 2 27 5 29 45 29 24 0 53 -5 65 -11z"/>
<path d="M6501 953 c19 -5 20 -8 49 -223 12 -85 23 -157 25 -159 14 -14 38 24
94 148 35 78 66 140 68 137 4 -3 43 -258 43 -278 0 -5 7 -8 16 -8 9 0 25 22
38 52 13 29 47 102 75 162 28 59 51 112 51 118 0 5 11 20 25 33 l24 25 -47 -1
c-37 -1 -41 -3 -20 -8 l27 -6 -37 -80 c-21 -44 -56 -118 -77 -164 l-40 -84
-17 124 c-9 68 -19 143 -23 166 -5 38 -4 42 17 46 13 2 -4 4 -37 4 -33 1 -53
-1 -44 -4 37 -9 28 -53 -38 -192 -36 -75 -67 -131 -69 -126 -3 10 -44 304 -44
318 0 4 -17 6 -37 6 -21 -1 -31 -3 -22 -6z"/>
<path d="M8398 953 c16 -3 22 -11 22 -31 0 -41 -49 -326 -58 -333 -4 -4 -16
-9 -27 -12 -11 -3 12 -5 50 -4 39 0 60 2 48 4 -13 2 -23 8 -23 13 0 15 51 324
56 342 3 9 15 19 27 21 12 2 -9 4 -48 4 -38 0 -60 -2 -47 -4z"/>
<path d="M5017 943 c-15 -14 -7 -43 12 -43 20 0 35 25 25 41 -6 11 -28 12 -37
2z"/>
<path d="M5630 935 c-10 -11 -10 -19 -2 -27 15 -15 44 -2 40 19 -4 23 -22 27
-38 8z"/>
<path d="M9933 943 c-7 -2 -13 -14 -13 -25 0 -14 6 -19 23 -16 14 2 22 10 22
22 0 21 -12 28 -32 19z"/>
<path d="M7734 870 c-12 -30 -24 -42 -48 -49 -29 -9 -30 -9 -5 -10 l26 -1 -13
-72 c-20 -110 -18 -144 8 -162 27 -19 48 -20 81 -5 26 12 55 59 37 59 -6 0
-10 -4 -10 -9 0 -33 -82 -57 -93 -28 -2 6 3 58 11 115 l16 102 61 2 60 2 -59
3 -58 4 7 45 c8 55 0 56 -21 4z"/>
<path d="M8904 870 c-12 -30 -24 -42 -48 -49 -27 -8 -28 -9 -7 -10 23 -1 24
-3 17 -53 -20 -155 -20 -164 5 -182 27 -19 49 -20 82 -5 26 12 55 59 37 59 -6
0 -10 -4 -10 -9 0 -33 -82 -57 -93 -28 -2 6 3 58 11 115 l15 102 61 2 61 2
-59 3 -59 4 7 45 c3 24 3 44 1 44 -3 0 -12 -18 -21 -40z"/>
<path d="M9713 873 c-10 -21 -18 -40 -20 -42 -1 -2 -17 -7 -35 -11 -31 -8 -32
-8 -5 -9 31 -1 31 0 12 -106 -8 -44 -15 -86 -15 -92 0 -23 39 -53 69 -53 33 0
81 34 81 57 0 11 -7 7 -21 -11 -16 -21 -28 -26 -53 -24 -30 3 -31 4 -29 53 1
27 7 78 13 112 l12 62 57 4 56 3 -57 2 -57 2 5 33 c3 17 7 38 10 45 8 26 -7
10 -23 -25z"/>
<path d="M4650 820 c-25 -8 -25 -8 -2 -9 17 -1 22 -6 19 -18 -3 -10 -11 -55
-17 -99 -14 -92 -6 -120 35 -130 35 -9 68 2 105 32 l31 27 -7 -27 c-6 -25 -5
-26 37 -25 37 0 40 2 21 9 -17 7 -21 15 -17 32 10 45 35 212 31 215 -1 2 -21
-1 -42 -6 -24 -5 -30 -9 -16 -10 12 -1 22 -3 22 -6 0 -4 -15 -84 -26 -132 -2
-13 -18 -38 -35 -58 -24 -27 -39 -35 -65 -35 -45 0 -50 24 -30 143 9 52 16 97
16 101 0 8 -28 6 -60 -4z"/>
<path d="M4980 820 c-18 -6 -20 -8 -7 -9 16 -1 18 -7 12 -56 -17 -131 -29
-169 -55 -176 -15 -4 2 -7 45 -7 39 1 60 3 48 5 -13 3 -23 12 -23 21 0 20 29
189 36 215 6 19 -12 21 -56 7z"/>
<path d="M5595 820 c-25 -6 -26 -8 -7 -9 20 -1 23 -5 18 -28 -3 -16 -10 -57
-16 -93 -17 -107 -18 -108 -48 -113 -15 -2 7 -4 48 -5 46 0 65 3 50 7 -28 8
-28 3 -6 143 9 54 16 100 16 103 0 6 -16 5 -55 -5z"/>
<path d="M5740 820 c-13 -8 -12 -10 4 -10 16 0 18 -6 12 -52 -4 -29 -12 -80
-19 -113 -10 -50 -16 -60 -37 -66 -15 -4 2 -7 45 -7 39 1 60 3 47 5 -22 4 -23
7 -16 61 4 31 11 68 16 82 6 14 11 44 12 68 2 39 1 42 -23 42 -14 0 -33 -5
-41 -10z"/>
<path d="M5838 809 c-16 -11 -28 -25 -28 -31 0 -5 14 2 31 16 17 14 42 26 55
26 38 0 46 -36 29 -133 -8 -45 -15 -87 -15 -94 0 -6 -10 -14 -22 -16 -13 -2 6
-4 42 -4 36 0 55 2 43 4 -27 5 -27 6 -8 118 14 79 14 90 0 111 -20 31 -87 33
-127 3z"/>
<path d="M6117 819 c-24 -14 -47 -62 -47 -99 0 -17 -8 -42 -17 -57 -16 -23
-16 -28 -1 -53 15 -27 15 -28 -7 -40 -13 -7 -29 -26 -36 -41 -26 -64 56 -112
151 -89 51 12 73 30 84 68 16 51 -18 83 -103 96 -57 9 -81 22 -81 46 0 27 17
33 42 16 67 -48 176 37 149 115 -9 27 -8 29 17 30 18 1 12 4 -18 10 -63 11
-112 10 -133 -2z m88 -16 c13 -12 16 -27 12 -56 -7 -52 -33 -79 -71 -75 -30 3
-31 5 -34 55 -2 42 1 56 17 72 25 25 54 27 76 4z m11 -257 c24 -9 13 -58 -16
-73 -14 -7 -50 -13 -81 -13 -71 0 -106 23 -95 63 10 43 46 56 117 41 33 -7 67
-15 75 -18z"/>
<path d="M7023 809 c-65 -41 -90 -164 -44 -213 27 -28 68 -40 109 -31 29 6 87
53 78 63 -3 3 -18 -7 -32 -21 -64 -65 -160 -8 -138 80 6 22 11 23 100 23 l94
0 0 35 c0 77 -92 112 -167 64z m111 -11 c9 -12 16 -35 16 -50 l0 -28 -75 0
c-41 0 -75 2 -75 5 0 4 7 19 15 35 30 59 91 78 119 38z"/>
<path d="M7288 819 c-10 -5 -18 -19 -18 -31 0 -20 1 -19 25 6 26 28 72 35 93
14 7 -7 12 -29 12 -50 0 -38 0 -38 -40 -38 -74 0 -150 -51 -150 -101 0 -28 36
-59 68 -59 31 0 92 34 92 52 0 6 -10 2 -23 -10 -28 -27 -82 -30 -91 -5 -12 30
13 80 48 97 49 23 86 21 86 -5 0 -11 -4 -28 -9 -37 -5 -9 -6 -32 -4 -49 5 -31
8 -33 42 -32 20 1 28 3 17 6 -16 4 -18 11 -12 61 19 156 20 148 -3 171 -23 23
-101 29 -133 10z"/>
<path d="M8530 820 c-12 -8 -10 -10 8 -10 20 0 23 -4 18 -27 -3 -16 -10 -59
-16 -98 -15 -97 -17 -103 -48 -108 -15 -2 7 -4 48 -4 41 0 64 2 51 4 -23 5
-23 7 -17 65 8 81 37 143 75 162 74 39 88 16 71 -119 -11 -93 -15 -104 -34
-108 -12 -2 8 -4 44 -4 36 0 54 2 41 4 -26 5 -25 -11 -5 166 8 66 -8 87 -66
87 -29 0 -48 -8 -73 -29 l-33 -30 4 30 c4 26 2 29 -24 29 -16 0 -36 -5 -44
-10z"/>
<path d="M9112 810 c-37 -23 -71 -88 -72 -137 -1 -113 124 -152 204 -64 27 30
4 26 -24 -4 -18 -19 -34 -25 -66 -25 -38 0 -45 4 -59 31 -9 16 -15 45 -13 62
l3 32 92 3 c88 3 93 4 99 26 7 28 -18 81 -41 90 -33 12 -91 6 -123 -14z m109
-11 c13 -13 19 -30 17 -47 -3 -26 -5 -27 -75 -30 -80 -3 -84 1 -56 48 29 50
80 63 114 29z"/>
<path d="M9340 820 c-13 -8 -12 -10 3 -10 21 0 21 -16 3 -128 -14 -88 -19 -97
-51 -105 -11 -3 14 -5 55 -4 41 0 63 2 48 4 -33 5 -33 12 -13 103 9 36 17 84
18 108 3 39 2 42 -22 42 -14 0 -33 -5 -41 -10z"/>
<path d="M9438 809 c-16 -11 -28 -25 -28 -31 0 -5 14 2 31 16 17 14 41 26 54
26 39 0 48 -30 35 -113 -19 -123 -20 -126 -43 -130 -12 -2 7 -4 43 -4 36 0 55
2 43 4 -27 5 -27 0 -7 114 14 82 14 93 -1 115 -20 31 -87 33 -127 3z"/>
<path d="M9890 820 c-17 -5 -19 -8 -7 -9 21 -1 21 -19 2 -131 -16 -90 -19 -95
-50 -103 -11 -3 12 -5 50 -4 39 0 60 2 48 4 -13 2 -23 9 -23 14 0 16 30 203
36 222 6 19 -12 21 -56 7z"/>
<path d="M10072 810 c-63 -39 -90 -145 -53 -207 50 -81 183 -37 212 70 33 122
-57 199 -159 137z m104 -11 c34 -38 21 -150 -24 -201 -19 -23 -75 -23 -93 -2
-19 23 -15 133 5 173 28 53 79 67 112 30z"/>
<path d="M10305 820 c-3 -5 1 -10 10 -10 17 0 16 -24 -8 -160 -10 -55 -15 -65
-37 -71 -15 -4 2 -7 45 -7 39 1 60 3 48 5 -26 5 -27 13 -13 97 15 95 74 159
129 141 25 -8 27 -41 9 -157 -10 -65 -15 -78 -32 -81 -12 -2 8 -4 44 -4 36 0
54 2 41 4 -22 4 -23 8 -17 56 19 141 19 163 1 180 -26 27 -88 22 -126 -10
l-32 -27 5 27 c5 25 3 27 -28 27 -18 0 -36 -4 -39 -10z"/>
<path d="M10668 819 c-10 -5 -18 -19 -18 -29 0 -17 2 -17 25 5 46 47 105 24
105 -41 0 -33 -1 -34 -42 -34 -52 0 -122 -31 -137 -58 -27 -52 2 -102 59 -102
28 0 90 34 90 50 0 6 -13 1 -29 -11 -34 -25 -84 -23 -89 4 -10 53 47 107 114
107 25 0 26 -2 19 -32 -8 -39 -9 -45 -7 -80 2 -25 5 -28 40 -27 30 0 33 2 16
9 -21 8 -21 10 -8 92 18 109 18 114 -6 138 -22 22 -101 28 -132 9z"/>
<path d="M11193 808 c11 -9 27 -56 44 -135 l27 -123 -30 -42 c-26 -38 -35 -43
-69 -44 -43 0 -58 -18 -24 -27 56 -15 81 14 195 222 46 84 87 147 99 152 14 5
3 8 -35 7 -38 0 -47 -2 -28 -7 l27 -6 -54 -100 c-51 -95 -54 -98 -60 -70 -4
17 -15 62 -25 102 -16 66 -16 72 -1 76 9 3 -6 5 -33 6 -42 1 -47 -1 -33 -11z"/>
</g>
</svg>