<?xml version="1.0" encoding="UTF-8" standalone="no"?>
<svg
   xmlns:dc="http://purl.org/dc/elements/1.1/"
   xmlns:cc="http://creativecommons.org/ns#"
   xmlns:rdf="http://www.w3.org/1999/02/22-rdf-syntax-ns#"
   xmlns:svg="http://www.w3.org/2000/svg"
   xmlns="http://www.w3.org/2000/svg"
   viewBox="0 0 304.22668 304.22668"
   height="304.22668"
   width="304.22668"
   xml:space="preserve"
   id="svg2"
   version="1.1"><metadata
     id="metadata8"><rdf:RDF><cc:Work
         rdf:about=""><dc:format>image/svg+xml</dc:format><dc:type
           rdf:resource="http://purl.org/dc/dcmitype/StillImage" /></cc:Work></rdf:RDF></metadata><defs
     id="defs6"><clipPath
       id="clipPath20"
       clipPathUnits="userSpaceOnUse"><path
         id="path18"
         d="M 0,2281.7 V 0 h 2281.69 v 2281.7 z" /></clipPath></defs><g
     transform="matrix(1.3333333,0,0,-1.3333333,0,304.22667)"
     id="g10"><g
       transform="scale(0.1)"
       id="g12"><g
         id="g14"><g
           clip-path="url(#clipPath20)"
           id="g16"><path
             id="path22"
             style="fill:#fbc218;fill-opacity:1;fill-rule:nonzero;stroke:none"
             d="M 1315.17,425.219 1360,595.07 1516.22,514.73 1584.97,89.7813 Z m -48.06,30.972 -107.84,130.258 56.4,111.731 96.97,-79.129 z M 1078.54,752.93 c -32.21,2.429 -48.32,9.211 -48.32,20.468 0,4.793 1.6,10.403 4.84,16.821 25.76,44.09 62.4,107.429 109.93,190 60.41,109.811 105.11,199.981 134.09,270.541 l 2.41,6.03 c 0,3.21 -2.83,5.2 -8.46,6 -10.47,0 -20.53,0.39 -30.19,1.22 -15.3,0.78 -22.95,3.2 -22.95,7.19 0,3.21 3.62,4.81 10.87,4.81 h 107.51 c 27.37,0 67.66,6.06 120.8,18.14 53.16,12.08 90.62,18.1 112.35,18.1 3.22,0 4.83,-1.19 4.83,-3.61 0,-1.64 -2.22,-5.86 -6.63,-12.69 -4.44,-6.86 -7.06,-11.47 -7.85,-13.88 -2.43,-8.07 -7.26,-12.08 -14.51,-12.08 -45.9,-0.83 -107.93,-2.84 -186.03,-6.06 -8.06,-0.8 -14.91,-5.63 -20.54,-14.48 -25.79,-42.7 -62.82,-111.15 -111.14,-205.36 -1.62,-3.23 -2.41,-6.05 -2.41,-8.46 0,-4.06 2.8,-7.27 8.45,-9.67 13.69,-6.47 35.04,-9.68 64.03,-9.68 19.33,0 47.12,3.21 83.36,9.68 36.23,6.44 60.39,9.67 72.47,9.67 4.02,0 6.04,-2.11 6.04,-6.32 0,-14.29 -7.65,-21.85 -22.95,-22.68 -38.65,-1.63 -86.18,-2.43 -142.55,-2.43 6.44,0 -18.12,1.6 -73.69,4.85 -6.45,0 -11.68,-3.25 -15.7,-9.659 -30.62,-56.391 -47.53,-87.801 -50.74,-94.231 -18.53,-36.238 -32.62,-68.859 -42.28,-97.851 -2.42,-7.25 -3.62,-13.297 -3.62,-18.118 0,-13.703 10.27,-21.55 30.8,-23.57 20.55,-2.019 30.8,-4.23 30.8,-6.633 0,-4.019 -2.82,-6.058 -8.45,-6.058 h -24.16 c -39.47,0 -59.61,0 -60.41,0 z m -98.415,-288.532 -45.531,162.852 96.966,79.129 56.4,-111.731 z m -82.602,761.162 c -6.457,0 -11.679,-3.23 -15.703,-9.65 -30.617,-56.39 -47.531,-87.79 -50.738,-94.24 -18.535,-36.24 -32.621,-68.85 -42.281,-97.85 -2.414,-7.25 -3.621,-13.29 -3.621,-18.1 0,-13.72 10.265,-21.572 30.804,-23.579 20.543,-2.02 30.797,-4.231 30.797,-6.641 0,-4.012 -2.816,-6.051 -8.441,-6.051 h -24.16 c -39.477,0 -59.614,0 -60.418,0 -32.215,2.43 -48.321,9.211 -48.321,20.461 0,4.789 1.61,10.4 4.84,16.82 25.762,44.09 62.403,107.43 109.938,190 60.398,109.82 105.097,199.99 134.082,270.55 l 2.418,6.03 c 0,3.21 -2.832,5.2 -8.457,6 -10.481,0 -20.539,0.39 -30.203,1.21 -15.301,0.78 -22.946,3.21 -22.946,7.2 0,3.21 3.625,4.81 10.867,4.81 h 107.51 c 27.37,0 67.66,6.06 120.8,18.14 53.16,12.08 90.62,18.1 112.36,18.1 3.21,0 4.82,-1.19 4.82,-3.62 0,-1.63 -2.22,-5.85 -6.63,-12.69 -4.44,-6.85 -7.06,-11.47 -7.85,-13.87 -2.42,-8.07 -7.26,-12.08 -14.5,-12.08 -45.92,-0.83 -107.93,-2.85 -186.04,-6.05 -8.05,-0.81 -14.91,-5.64 -20.54,-14.49 -25.785,-42.7 -62.816,-111.15 -111.137,-205.36 -1.625,-3.23 -2.418,-6.05 -2.418,-8.46 0,-4.06 2.809,-7.27 8.458,-9.67 13.687,-6.47 35.039,-9.68 64.023,-9.68 19.336,0 47.124,3.21 83.364,9.68 36.23,6.44 60.39,9.67 72.47,9.67 4.03,0 6.04,-2.11 6.04,-6.32 0,-14.29 -7.65,-21.85 -22.94,-22.68 -38.66,-1.62 -86.19,-2.43 -142.555,-2.43 6.437,0 -18.121,1.61 -73.692,4.84 z M 721.293,588.621 745.93,755.91 866.703,788.75 872.781,663.738 Z M 535.359,807.371 625.918,950.18 749.605,931.07 704.313,814.391 Z m -80.882,275.459 140.816,93.64 105.219,-67.78 -88.832,-88.16 z m 38.152,284.56 166.723,28.26 68.562,-104.71 -117.012,-44.41 z m 314.398,202.44 20.047,-123.54 -124.969,7.01 -58.878,158.52 z m 73.192,204.04 132.561,-104.99 -31.936,-121.01 -111.305,57.24 z m 282.411,51.65 78.4,-149.83 -78.4,-97.56 -78.39,97.56 z m 279.01,-67.7 10.68,-168.76 -111.31,-57.24 -31.93,121.02 z m 63.54,-217.3 163.81,41.99 -58.88,-158.52 -124.97,-7.02 z m 300.2,-210.65 -118.27,-120.86 -117.01,44.42 68.56,104.7 z m 21.83,-286.26 -157.19,-62.309 -88.84,88.169 105.22,67.76 z m -294.59,-478.188 -151.5,75.137 6.08,125.011 120.78,-32.851 z m 198.12,207.789 -168.96,7.019 -45.29,116.668 123.69,19.122 z m -139.56,-215.223 -28.14,173.403 175.4,-9.852 235.38,-359.84 c 108.02,115.442 192.25,253.289 245.08,405.903 l -429.59,23.949 -96.23,146.961 164.24,62.328 361.62,-233.129 c 40.47,116.961 62.76,242.419 62.76,373.139 0,32.84 -1.71,65.28 -4.44,97.41 l -401.93,-152.76 -147.69,95.12 124.68,123.75 424.92,-65.86 c -13.86,163.53 -62.07,317.21 -137.62,453.77 l -305.28,-303.25 -173.61,26.82 63.57,163.76 415.27,112.75 c -77.56,140.15 -183.69,262.22 -310.64,358.37 l -155.48,-401.09 -169.52,-46.1 -8.53,175.46 333.42,271.82 c -125.43,94.98 -271.15,164.41 -429.45,201.1 l 21.09,-429.64 -136.11,-111.07 -79.16,156.83 194.02,383.92 c -83.05,19.24 -169.46,29.74 -258.36,29.74 -73.8,0 -145.866,-7.26 -215.764,-20.65 l 194.034,-383.96 -79.16,-156.81 -136.101,111.06 21.09,429.69 C 764.953,2230.37 616.922,2166.31 488.223,2076.36 l 333.324,-271.75 -8.535,-175.46 -169.508,46.1 -155.453,400.99 C 357.348,1984.85 246.559,1866.98 163.836,1730.11 L 579.18,1617.35 642.746,1453.59 469.137,1426.76 163.813,1730.07 C 82.8984,1596.19 29.0156,1444.27 8.98047,1281.84 L 433.93,1347.7 558.605,1223.95 410.922,1128.83 8.95313,1281.61 C 3.26953,1235.45 -0.00390625,1188.55 -0.00390625,1140.85 -0.00390625,1025.43 17.293,914.07 49.168,809.07 L 410.91,1042.29 575.145,979.949 478.914,832.988 49.1758,809.039 C 96.1953,654.16 175.355,513.379 278.746,394.109 L 514.105,753.922 689.496,763.77 661.363,590.371 278.93,393.91 C 382.98,273.949 511.516,175.898 656.945,107.672 l 68.727,424.777 156.219,80.34 L 926.719,442.941 657.023,107.629 C 797.691,41.6406 954.012,3.67969 1118.91,0.558594 L 1009.03,416.18 1119.06,553.121 1229.1,416.18 1119.21,0.550781 C 1126.43,0.410156 1133.59,0 1140.85,0 c 328.63,0 624.62,139.148 832.79,361.52 l -382.46,196.468" /></g></g></g></g></svg>